<svg xmlns="http://www.w3.org/2000/svg" height="24px" viewBox="0 -960 960 960" width="24px" fill="#D9D9D9"><path d="m520-387.5 52.5-52.5-95-95v-182.5h-75V-505L520-387.5ZM369.5-246q15-48 55.25-79.75T518-357.5h153q24.5-34.5 38-75.75T722.5-520q0-117.5-82.5-200t-200-82.5q-117.5 0-200 82.5t-82.5 200q0 99.5 59.75 175t152.25 99ZM520-42.5q-57.5 0-101-36.5t-54-91q-121.5-25.5-202-123T82.5-520q0-149 104.25-253.25T440-877.5q149 0 253.25 104.25T797.5-520q0 44-10 85t-29 77.5h4q65 0 110 46.25t45 111.25q0 65.5-46 111.5T760-42.5H520Zm-80-482ZM640-200Zm-120 82.5h240q34 0 58.25-24.25T842.5-200q0-34-24.25-58.25T760-282.5H520q-34 0-58.25 24.25T437.5-200q0 34 24.25 58.25T520-117.5Zm-26.5-56q-11-11-11-26.5t11-26.5q11-11 26.5-11t26.5 11q11 11 11 26.5t-11 26.5q-11 11-26.5 11t-26.5-11Zm120 0q-11-11-11-26.5t11-26.5q11-11 26.5-11t26.5 11q11 11 11 26.5t-11 26.5q-11 11-26.5 11t-26.5-11Zm120 0q-11-11-11-26.5t11-26.5q11-11 26.5-11t26.5 11q11 11 11 26.5t-11 26.5q-11 11-26.5 11t-26.5-11Z"/></svg>